<?xml version="1.0" encoding="UTF-8"?>
<svg id="Layer_1" data-name="Layer 1" xmlns="http://www.w3.org/2000/svg" version="1.1" viewBox="0 0 32 32">
  <defs>
    <style>
      .cls-1 {
        fill: #14213c;
      }

      .cls-1, .cls-2, .cls-3 {
        stroke-width: 0px;
      }

      .cls-2 {
        fill: #f9a21b;
      }

      .cls-3 {
        fill: #fff;
      }
    </style>
  </defs>
  <circle class="cls-3" cx="16" cy="16.02" r="16.02"/>
  <g>
    <path class="cls-1" d="M9.84,16h3.08c.02-1.69,1.39-3.05,3.08-3.05v-3.08c-3.39,0-6.14,2.74-6.16,6.13Z"/>
    <path class="cls-1" d="M19.08,16s0,.02,0,.03c0,1.7-1.38,3.08-3.08,3.08v3.08c3.4,0,6.16-2.76,6.16-6.16,0-.01,0-.02,0-.03h-3.08Z"/>
    <g>
      <path class="cls-1" d="M16,23.7v3.08c5.96,0,10.78-4.83,10.78-10.78h-3.08c0,4.25-3.45,7.7-7.7,7.7Z"/>
      <path class="cls-1" d="M5.22,16h3.08c0-4.25,3.45-7.7,7.7-7.7v-3.08c-5.96,0-10.78,4.83-10.78,10.78Z"/>
    </g>
    <path class="cls-1" d="M16.15,28.32v3.7c8.78-.08,15.88-7.22,15.88-16.02h-3.7c0,6.76-5.44,12.24-12.18,12.32Z"/>
    <path class="cls-1" d="M28.23,14.46h3.72C31.23,6.89,25.24.86,17.69.07v3.72c5.51.75,9.85,5.14,10.54,10.67Z"/>
    <path class="cls-1" d="M3.77,17.54H.05c.73,7.67,6.87,13.76,14.55,14.42v-3.72c-5.64-.64-10.13-5.08-10.83-10.7Z"/>
    <path class="cls-1" d="M16-.02C7.15-.02-.02,7.15-.02,16h3.7c0-6.81,5.52-12.32,12.32-12.32V-.02Z"/>
    <path class="cls-2" d="M3.68,16.02h1.54c0-5.96,4.83-10.78,10.78-10.78v-1.54c-6.81,0-12.32,5.52-12.32,12.32Z"/>
  </g>
</svg>